<svg height="512" viewBox="0 0 64 64" width="512" xmlns="http://www.w3.org/2000/svg" xmlns:xlink="http://www.w3.org/1999/xlink"><linearGradient id="gradient_ice" gradientUnits="userSpaceOnUse" x1="10.508" x2="72.572" y1="67.154" y2="-2.669"><stop offset="0" stop-color="#fff200"/><stop offset="1" stop-color="#cd118c"/></linearGradient><linearGradient id="gradient_ice-2" x1="10.023" x2="72.088" xlink:href="#gradient_ice" y1="66.724" y2="-3.099"/><linearGradient id="gradient_ice-3" x1="-2.639" x2="59.426" xlink:href="#gradient_ice" y1="55.468" y2="-14.354"/><linearGradient id="gradient_ice-4" x1="1.83" x2="63.895" xlink:href="#gradient_ice" y1="59.441" y2="-10.382"/><linearGradient id="gradient_ice-5" x1="2.276" x2="64.341" xlink:href="#gradient_ice" y1="59.837" y2="-9.986"/><g id="man-working-laptop-work_at_home" data-name="man-working-laptop-work at home"><path d="m61 56h-1.3a7.124 7.124 0 0 0 .3-2 6.952 6.952 0 0 0 -2-4.89v-8.11a5.017 5.017 0 0 0 -4-4.9v-3.1a3.009 3.009 0 0 0 -3-3h-10.52a10.928 10.928 0 0 0 2.52-7h1a3.009 3.009 0 0 0 3-3v-2a3.009 3.009 0 0 0 -3-3h-1v-2a9.014 9.014 0 0 0 -9-9c-.22 0-.44.01-.65.03a10.883 10.883 0 0 0 -6.35-2.03 11.007 11.007 0 0 0 -11 11 1 1 0 0 0 1 1h4v1h-1a3.009 3.009 0 0 0 -3 3v2a3.009 3.009 0 0 0 3 3h1a11.03 11.03 0 0 0 2.53 7h-10.53a3.009 3.009 0 0 0 -3 3v3.1a5.017 5.017 0 0 0 -4 4.9v8.11a6.952 6.952 0 0 0 -2 4.89 7.062 7.062 0 0 0 .29 2h-1.29a1 1 0 0 0 -1 1v4a1 1 0 0 0 1 1h58a1 1 0 0 0 1-1v-4a1 1 0 0 0 -1-1zm-18-39h1a1 1 0 0 1 1 1v2a1 1 0 0 1 -1 1h-1zm-22 4h-1a1 1 0 0 1 -1-1v-2a1 1 0 0 1 1-1h1zm33 17.17a3.014 3.014 0 0 1 2 2.83v6.69a6.739 6.739 0 0 0 -2-.61zm0 10.93a5.017 5.017 0 0 1 4 4.9 5.085 5.085 0 0 1 -.42 2h-1.76a3 3 0 0 0 .18-1v-1a2.006 2.006 0 0 0 -2-2zm-35.94-37.1a9.008 9.008 0 0 1 8.94-8 8.9 8.9 0 0 1 5.45 1.85 1.009 1.009 0 0 0 .73.2 7.368 7.368 0 0 1 .82-.05 7.013 7.013 0 0 1 6.93 6zm4.94 11v-9h18v9a8.942 8.942 0 0 1 -2.64 6.36 7.548 7.548 0 0 1 -.74.64h-11.25a9.039 9.039 0 0 1 -3.37-7zm-11 10a1 1 0 0 1 1-1h38a1 1 0 0 1 1 1v19h-40zm42 21v1a1 1 0 0 1 -1 1h-42a1 1 0 0 1 -1-1v-1zm-46-13a3.014 3.014 0 0 1 2-2.83v8.91a6.739 6.739 0 0 0 -2 .61zm2 8.1v2.9a2.006 2.006 0 0 0 -2 2v1a3 3 0 0 0 .18 1h-1.76a5 5 0 0 1 3.58-6.9zm50 10.9h-56v-2h56z" fill="url(#gradient_ice)"/><path d="m32 46a4 4 0 0 0 4-4h-2a2 2 0 1 1 -2-2v-2a4 4 0 0 0 0 8z" fill="url(#gradient_ice-2)"/><path d="m28 23a1 1 0 0 0 1-1v-2a1 1 0 0 0 -2 0v2a1 1 0 0 0 1 1z" fill="url(#gradient_ice-3)"/><path d="m36 19a1 1 0 0 0 -1 1v2a1 1 0 0 0 2 0v-2a1 1 0 0 0 -1-1z" fill="url(#gradient_ice-4)"/><path d="m32 27c-1.936 0-3-.751-3-1h-2c0 1.71 2.149 3 5 3s5-1.29 5-3h-2c0 .249-1.064 1-3 1z" fill="url(#gradient_ice-5)"/></g></svg>